<?xml version="1.0" encoding="UTF-8"?><svg xmlns="http://www.w3.org/2000/svg" xmlns:xlink="http://www.w3.org/1999/xlink" height="418.5" preserveAspectRatio="xMidYMid meet" version="1.0" viewBox="0.0 -0.0 450.0 418.5" width="450.0" zoomAndPan="magnify"><defs><clipPath id="a"><path d="M 0 183 L 259 183 L 259 418.53125 L 0 418.53125 Z M 0 183"/></clipPath><clipPath id="b"><path d="M 0 183 L 257 183 L 257 418.53125 L 0 418.53125 Z M 0 183"/></clipPath></defs><g><g><path d="M 353.242188 260.566406 L 321.871094 241.730469 L 332.964844 234.726562 L 353.242188 228.617188 L 363.601562 243.941406 L 353.242188 260.566406" fill="#273a76"/></g><g><path d="M 251.816406 260.691406 L 281.179688 211.371094 L 263.4375 201.199219 C 262.960938 200.867188 262.453125 200.578125 261.925781 200.335938 C 258.328125 198.6875 253.59375 199.136719 248.382812 202.144531 C 237.164062 208.621094 228.070312 224.371094 228.070312 237.324219 C 228.070312 243.488281 230.148438 247.882812 233.515625 250.121094 L 233.515625 250.125 L 233.546875 250.144531 C 233.867188 250.355469 234.199219 250.546875 234.542969 250.71875 L 251.816406 260.691406" fill="#2b2625"/></g><g><path d="M 332.96875 191.371094 C 332.96875 175.980469 343.566406 157.328125 356.792969 149.210938 C 357.046875 149.058594 357.644531 148.640625 357.585938 147.824219 C 357.386719 136.226562 357.496094 126.359375 352.359375 119.210938 C 351.507812 118.027344 349.84375 117.347656 348.011719 116.699219 C 345.527344 115.824219 342.464844 116.636719 340.269531 120.503906 C 316.628906 162.144531 343.296875 152.734375 261.863281 202.6875 C 261.863281 202.6875 265.65625 205.25 266.214844 205.199219 C 282.355469 203.707031 284.613281 208.464844 285.488281 220.804688 L 289.839844 223.316406 L 331.6875 193.546875 C 332.488281 193.085938 332.96875 192.351562 332.96875 191.371094" fill="#3154ad"/></g><g><path d="M 287.027344 224.457031 C 287.027344 237.40625 277.9375 253.160156 266.71875 259.636719 C 255.5 266.109375 246.40625 260.859375 246.40625 247.90625 C 246.40625 234.953125 255.5 219.207031 266.71875 212.730469 C 277.933594 206.253906 287.027344 211.503906 287.027344 224.457031" fill="#393432"/></g><g><path d="M 337.320312 193.882812 C 337.320312 178.492188 347.914062 159.84375 361.144531 151.722656 C 361.394531 151.566406 361.992188 151.152344 361.9375 150.335938 C 361.699219 136.816406 359.890625 126.859375 352.359375 119.210938 C 350.515625 117.335938 346.8125 119.148438 344.617188 123.015625 C 320.976562 164.65625 347.644531 155.246094 266.214844 205.199219 C 283.722656 203.011719 288.933594 210.550781 289.839844 223.316406 L 336.039062 196.058594 C 336.839844 195.597656 337.320312 194.859375 337.320312 193.882812" fill="#273e7e"/></g><g><path d="M 420.113281 158.972656 C 407.144531 151.484375 366.035156 125.828125 352.359375 118.894531 C 338.683594 111.960938 341.234375 152.179688 341.234375 152.179688 L 403.300781 193.789062 L 420.113281 158.972656" fill="#3154ad"/></g><g><path d="M 319.066406 299.519531 L 348.425781 250.199219 L 330.6875 240.027344 C 330.207031 239.691406 329.703125 239.402344 329.171875 239.160156 C 325.574219 237.511719 320.839844 237.960938 315.632812 240.96875 C 304.414062 247.445312 295.320312 263.195312 295.320312 276.148438 C 295.320312 282.316406 297.398438 286.707031 300.765625 288.949219 L 300.796875 288.96875 C 301.113281 289.179688 301.445312 289.371094 301.789062 289.546875 L 319.066406 299.519531" fill="#2b2625"/></g><g><path d="M 404.394531 198.679688 L 397.886719 202.507812 L 330.972656 241.644531 L 330.800781 241.730469 L 329.609375 242.453125 L 266.226562 205.1875 L 333.949219 146.054688 L 341.054688 143.417969 L 399.675781 177.28125 L 400.394531 180.515625 L 404.394531 198.679688" fill="#484439"/></g><g><path d="M 400.699219 177.871094 L 400.402344 180.507812 L 397.894531 202.5 L 355.992188 227.003906 L 349.398438 230.875 L 330.976562 241.636719 L 330.808594 241.722656 L 341.527344 231.085938 L 348.464844 224.195312 L 392.023438 180.976562 L 399.679688 177.273438 L 400.699219 177.871094" fill="#23201e"/></g><g><path d="M 414.789062 243.941406 L 444.148438 194.621094 L 426.40625 184.449219 C 425.929688 184.117188 425.425781 183.828125 424.894531 183.585938 C 421.300781 181.9375 416.5625 182.386719 411.351562 185.394531 C 400.136719 191.871094 391.042969 207.621094 391.042969 220.570312 C 391.042969 226.738281 393.117188 231.132812 396.488281 233.371094 L 396.484375 233.375 L 396.519531 233.394531 C 396.839844 233.605469 397.171875 233.796875 397.515625 233.96875 L 414.789062 243.941406" fill="#2b2625"/></g><g><path d="M 400.722656 231.132812 C 400.722656 215.742188 411.320312 197.089844 424.546875 188.96875 C 424.796875 188.816406 425.398438 188.402344 425.339844 187.585938 C 425.140625 175.984375 425.25 166.117188 420.113281 158.972656 C 419.261719 157.789062 417.597656 157.109375 415.761719 156.460938 C 413.28125 155.585938 410.21875 156.398438 408.019531 160.265625 C 384.382812 201.90625 411.050781 192.496094 329.617188 242.445312 C 329.617188 242.445312 333.410156 245.011719 333.964844 244.960938 C 350.109375 243.46875 352.367188 248.222656 353.242188 260.566406 L 357.589844 263.074219 L 399.441406 233.308594 C 400.238281 232.847656 400.722656 232.109375 400.722656 231.132812" fill="#3154ad"/></g><g><path d="M 405.070312 233.644531 C 405.070312 218.253906 415.667969 199.601562 428.894531 191.480469 C 429.144531 191.328125 429.746094 190.910156 429.6875 190.09375 C 429.453125 176.574219 427.640625 166.621094 420.113281 158.972656 C 418.269531 157.097656 414.566406 158.90625 412.371094 162.777344 C 388.730469 204.414062 415.398438 195.007812 333.964844 244.960938 C 351.476562 242.773438 356.6875 250.308594 357.589844 263.074219 L 403.789062 235.820312 C 404.589844 235.359375 405.070312 234.621094 405.070312 233.644531" fill="#273e7e"/></g><g><path d="M 450 207.707031 C 450 220.660156 440.90625 236.410156 429.6875 242.886719 C 418.472656 249.359375 409.378906 244.109375 409.378906 231.160156 C 409.378906 218.207031 418.472656 202.457031 429.6875 195.980469 C 440.90625 189.503906 450 194.753906 450 207.707031" fill="#393432"/></g><g><path d="M 442.46875 214.929688 C 442.46875 221.4375 437.875 229.394531 432.257812 232.625 C 427.070312 235.644531 422.773438 233.648438 422.09375 228.285156 C 422.050781 227.777344 422.007812 227.265625 422.007812 226.710938 C 422.007812 220.203125 426.601562 212.289062 432.257812 209.015625 C 432.726562 208.71875 433.195312 208.503906 433.664062 208.335938 C 438.640625 206.25 442.46875 208.972656 442.46875 214.929688" fill="#23201e"/></g><g><path d="M 435.363281 213.101562 C 435.363281 218.375 431.664062 224.757812 427.109375 227.394531 C 425.199219 228.5 423.453125 228.753906 422.09375 228.285156 C 422.050781 227.777344 422.007812 227.265625 422.007812 226.710938 C 422.007812 220.203125 426.601562 212.289062 432.257812 209.015625 C 432.726562 208.71875 433.195312 208.503906 433.664062 208.335938 C 434.726562 209.3125 435.363281 210.929688 435.363281 213.101562" fill="#72b49a"/></g><g><path d="M 354.277344 263.28125 C 354.277344 276.234375 345.183594 291.984375 333.964844 298.460938 C 322.75 304.9375 313.652344 299.6875 313.652344 286.734375 C 313.652344 273.78125 322.746094 258.03125 333.964844 251.554688 C 345.183594 245.078125 354.277344 250.328125 354.277344 263.28125" fill="#393432"/></g><g><path d="M 346.746094 270.503906 C 346.746094 277.015625 342.152344 284.96875 336.535156 288.199219 C 331.347656 291.222656 327.050781 289.222656 326.367188 283.863281 C 326.324219 283.351562 326.28125 282.84375 326.28125 282.289062 C 326.28125 275.777344 330.878906 267.867188 336.535156 264.59375 C 337.003906 264.292969 337.472656 264.082031 337.9375 263.910156 C 342.917969 261.824219 346.746094 264.550781 346.746094 270.503906" fill="#23201e"/></g><g><path d="M 339.640625 268.675781 C 339.640625 273.949219 335.941406 280.332031 331.390625 282.96875 C 329.476562 284.074219 327.730469 284.328125 326.367188 283.863281 C 326.324219 283.351562 326.28125 282.84375 326.28125 282.289062 C 326.28125 275.777344 330.878906 267.867188 336.535156 264.59375 C 337.003906 264.292969 337.472656 264.082031 337.9375 263.910156 C 339.003906 264.890625 339.640625 266.507812 339.640625 268.675781" fill="#72b49a"/></g><g><path d="M 231.152344 224.734375 L 229.898438 222.613281 C 236.703125 205.460938 254.933594 198.6875 254.933594 198.6875 L 266.214844 205.199219 L 339.640625 246.839844 L 340.894531 248.960938 C 340.894531 248.960938 323.789062 257.511719 317.113281 275.007812 L 231.152344 224.734375" fill="#273e7e"/></g><g><path d="M 229.898438 222.613281 C 236.570312 205.117188 253.679688 196.566406 253.679688 196.566406 L 264.960938 203.078125 L 328.363281 240.328125 L 339.640625 246.839844 C 339.640625 246.839844 322.53125 255.390625 315.859375 272.890625 L 229.898438 222.613281" fill="#3154ad"/></g><g><path d="M 246.550781 227.503906 L 240.371094 223.9375 L 258.636719 83.265625 C 261.574219 60.515625 277.113281 36.265625 295.578125 25.601562 L 339.929688 -0.00390625 L 346.105469 3.5625 L 339.359375 149.65625 L 333.1875 146.722656 L 333.183594 11.683594 L 298.226562 33.390625 C 283.085938 42.132812 269.984375 63.324219 267.574219 81.976562 L 246.550781 227.503906" fill="#484439"/></g><g><path d="M 257.929688 69.394531 L 246.550781 198.6875 C 246.550781 198.6875 244.050781 190.710938 244.238281 189.964844 C 244.425781 189.214844 255.066406 71.046875 255.066406 71.046875 L 257.929688 69.394531" fill="#121010"/></g><g><path d="M 240.371094 70.925781 C 240.375 75.726562 243.742188 77.667969 247.898438 75.269531 C 252.050781 72.871094 255.421875 67.035156 255.421875 62.238281 C 255.421875 57.441406 252.050781 55.496094 247.898438 57.894531 C 243.742188 60.296875 240.371094 66.128906 240.371094 70.925781" fill="#23201e"/></g><g><path d="M 245.242188 73.738281 C 245.242188 78.535156 248.609375 80.480469 252.765625 78.082031 C 256.921875 75.683594 260.289062 69.847656 260.289062 65.050781 C 260.289062 60.253906 256.921875 58.308594 252.765625 60.707031 C 248.609375 63.105469 245.242188 68.9375 245.242188 73.738281" fill="#23201e"/></g><g><path d="M 242.527344 75.742188 C 241.203125 74.941406 240.371094 73.289062 240.371094 70.925781 C 240.371094 66.128906 243.742188 60.296875 247.894531 57.894531 C 249.738281 56.832031 251.371094 56.742188 252.679688 57.261719 L 252.765625 57.167969 L 253.0625 57.335938 L 253.316406 57.484375 L 257.929688 60.109375 L 254.917969 65.398438 C 254.175781 68.246094 252.582031 71.0625 250.503906 73.15625 L 247.414062 78.585938 L 242.597656 75.800781 L 242.5625 75.78125 L 242.523438 75.757812 L 242.527344 75.742188" fill="#121010"/></g><g><path d="M 245.242188 73.738281 C 245.242188 78.535156 248.609375 80.480469 252.765625 78.082031 C 256.921875 75.683594 260.289062 69.847656 260.289062 65.050781 C 260.289062 60.253906 256.921875 58.308594 252.765625 60.707031 C 248.609375 63.105469 245.242188 68.9375 245.242188 73.738281" fill="#23201e"/></g><g><path d="M 249.304688 71.390625 C 249.304688 73.597656 250.855469 74.492188 252.765625 73.386719 C 254.675781 72.285156 256.222656 69.601562 256.222656 67.398438 C 256.222656 65.191406 254.675781 64.296875 252.765625 65.398438 C 250.855469 66.503906 249.304688 69.183594 249.304688 71.390625" fill="#121010"/></g><g><path d="M 253.210938 224.898438 L 246.550781 227.503906 L 264.8125 86.832031 C 267.75 64.082031 283.289062 39.828125 301.757812 29.167969 L 346.105469 3.5625 L 346.105469 146.394531 L 339.359375 150.289062 L 339.359375 15.246094 L 301.757812 36.957031 C 286.617188 45.695312 273.882812 65.574219 271.472656 84.226562 L 253.210938 224.898438" fill="#23201e"/></g><g><path d="M 377.476562 178.976562 C 377.476562 178.976562 352.800781 196.96875 345.015625 205.777344 L 310.644531 185.484375 L 310.644531 177.273438 C 323.875 160.386719 337.402344 156.132812 337.402344 156.132812 C 332.808594 139.628906 342.507812 110.570312 346.121094 109.679688 C 349.695312 108.742188 383.898438 125.289062 384.324219 130.820312 C 384.789062 136.351562 377.476562 178.976562 377.476562 178.976562" fill="#23201e"/></g><g><path d="M 300.113281 258.390625 L 293.9375 254.824219 L 312.203125 114.152344 C 315.144531 91.402344 330.679688 67.152344 349.148438 56.488281 L 393.496094 30.886719 L 399.671875 34.449219 L 392.929688 180.539062 L 386.753906 177.609375 L 386.75 42.566406 L 351.789062 64.277344 C 336.652344 73.019531 323.550781 94.210938 321.144531 112.863281 L 300.113281 258.390625" fill="#484439"/></g><g><path d="M 399.679688 34.46875 L 399.679688 177.273438 L 392.914062 181.1875 L 392.914062 46.125 L 355.3125 67.859375 C 349.609375 71.136719 344.207031 76.027344 339.613281 81.855469 C 332.042969 91.429688 326.511719 103.511719 325.023438 115.125 L 306.773438 255.804688 L 300.09375 258.398438 L 318.386719 117.71875 C 320.128906 104.234375 326.300781 90.195312 334.894531 78.792969 C 335.828125 77.519531 336.847656 76.285156 337.910156 75.050781 C 343.101562 68.882812 349.015625 63.648438 355.3125 60.035156 L 399.679688 34.46875" fill="#23201e"/></g><g><path d="M 312.472656 70.5 L 312.472656 300.425781 L 287.757812 314.679688 L 287.757812 84.792969 L 312.472656 70.5" fill="#23201e"/></g><g><path d="M 275.398438 307.554688 L 287.761719 314.6875 L 287.761719 84.78125 L 275.402344 77.644531 L 275.398438 307.554688" fill="#484439"/></g><g><path d="M 300.121094 63.375 L 275.402344 77.644531 L 287.761719 84.78125 L 312.476562 70.507812 L 300.121094 63.375" fill="#605a4a"/></g><g><path d="M 246.550781 262.390625 L 221.828125 276.660156 L 221.828125 46.753906 L 246.546875 32.484375 L 246.550781 262.390625" fill="#23201e"/></g><g><path d="M 209.46875 269.527344 L 221.828125 276.660156 L 221.828125 46.753906 L 209.46875 39.621094 L 209.46875 269.527344" fill="#484439"/></g><g><path d="M 234.1875 25.347656 L 209.46875 39.621094 L 221.828125 46.753906 L 246.546875 32.484375 L 234.1875 25.347656" fill="#605a4a"/></g><g><path d="M 246.546875 42.878906 L 291.082031 68.59375 L 282.710938 73.425781 L 238.710938 48.023438 L 246.546875 42.878906" fill="#4a463a"/></g><g><path d="M 238.710938 48.023438 L 282.710938 73.425781 L 276.40625 77.066406 L 238.710938 55.300781 L 238.710938 48.023438" fill="#312d26"/></g><g><path d="M 281.34375 47.886719 L 328.714844 75.238281 C 339.574219 60.539062 358.835938 52.0625 393.496094 30.886719 L 346.105469 3.5625 C 316.179688 20.839844 290.84375 30.746094 281.34375 47.886719" fill="#484439"/></g><g><path d="M 333.945312 77.644531 L 325.265625 82.65625 L 316.582031 77.644531 L 316.582031 73.425781 L 325.265625 72.632812 L 333.945312 73.425781 L 333.945312 77.644531" fill="#23201e"/></g><g><path d="M 333.945312 73.425781 L 325.265625 78.4375 L 316.582031 73.425781 L 325.265625 68.414062 L 333.945312 73.425781" fill="#6c6654"/></g><g><path d="M 331.476562 73.054688 L 330.179688 61.769531 L 320.351562 61.769531 L 319.054688 73.054688 C 318.980469 74.027344 319.546875 75.015625 320.835938 75.757812 C 323.28125 77.171875 327.246094 77.171875 329.691406 75.757812 C 330.980469 75.015625 331.546875 74.027344 331.476562 73.054688" fill="#f46b2b"/></g><g><path d="M 328.738281 59.761719 C 330.65625 60.871094 330.65625 62.667969 328.738281 63.773438 C 326.820312 64.882812 323.710938 64.882812 321.789062 63.773438 C 319.871094 62.667969 319.871094 60.871094 321.789062 59.761719 C 323.710938 58.65625 326.820312 58.65625 328.738281 59.761719" fill="#f79133"/></g><g><path d="M 287.074219 50.585938 L 278.394531 55.597656 L 269.710938 50.585938 L 269.710938 46.367188 L 278.394531 45.574219 L 287.074219 46.367188 L 287.074219 50.585938" fill="#23201e"/></g><g><path d="M 287.074219 46.367188 L 278.394531 51.378906 L 269.710938 46.367188 L 278.394531 41.351562 L 287.074219 46.367188" fill="#6c6654"/></g><g><path d="M 284.605469 45.992188 L 283.308594 34.707031 L 273.480469 34.707031 L 272.183594 45.992188 C 272.109375 46.96875 272.675781 47.953125 273.964844 48.699219 C 276.410156 50.109375 280.375 50.109375 282.820312 48.699219 C 284.109375 47.953125 284.675781 46.96875 284.605469 45.992188" fill="#f46b2b"/></g><g><path d="M 281.867188 32.703125 C 283.785156 33.808594 283.785156 35.605469 281.867188 36.714844 C 279.949219 37.820312 276.839844 37.820312 274.921875 36.714844 C 273 35.605469 273 33.808594 274.921875 32.703125 C 276.839844 31.59375 279.949219 31.59375 281.867188 32.703125" fill="#f79133"/></g><g><path d="M 202.800781 185.578125 L 202.800781 162.714844 L 285.65625 210.546875 L 285.65625 233.414062 L 202.800781 185.578125 M 285.65625 309.652344 L 202.800781 261.816406 L 202.800781 225.589844 L 285.65625 273.425781 L 285.65625 309.652344 M 202.800781 192.261719 L 285.65625 240.097656 L 285.65625 266.742188 L 202.800781 218.90625 L 202.800781 192.261719 M 197.015625 152.691406 L 197.015625 182.238281 L 197.011719 222.25 L 197.011719 265.15625 L 291.441406 319.675781 L 291.441406 207.207031 L 197.015625 152.691406" fill="#110f0f"/></g><g><path d="M 198.640625 187.980469 L 198.640625 165.113281 L 281.496094 212.949219 L 281.496094 235.816406 L 198.640625 187.980469 M 281.496094 312.054688 L 198.640625 264.21875 L 198.640625 227.988281 L 281.496094 275.824219 L 281.496094 312.054688 M 198.640625 194.660156 L 281.496094 242.496094 L 281.496094 269.144531 L 198.640625 221.308594 L 198.640625 194.660156 M 192.855469 155.089844 L 192.855469 267.558594 L 287.28125 322.074219 L 287.285156 279.167969 L 287.285156 209.609375 L 192.855469 155.089844" fill="#484439"/></g><g><path d="M 291.441406 207.207031 L 287.285156 209.609375 L 192.855469 155.089844 L 197.015625 152.691406 L 291.441406 207.207031" fill="#605a4a"/></g><g><path d="M 198.640625 187.980469 L 202.800781 185.578125 L 281.578125 231.0625 L 281.496094 235.816406 L 198.640625 187.980469" fill="#605a4a"/></g><g><path d="M 198.640625 221.308594 L 202.800781 218.90625 L 281.578125 264.390625 L 281.496094 269.144531 L 198.640625 221.308594" fill="#605a4a"/></g><g><path d="M 198.640625 264.21875 L 202.800781 261.816406 L 281.578125 307.300781 L 281.496094 312.054688 L 198.640625 264.21875" fill="#605a4a"/></g><g><path d="M 155.464844 375.667969 C 153.464844 376.320312 143.683594 369.132812 143.429688 368.933594 C 141.28125 367.226562 196.136719 337.585938 228.890625 319.773438 C 236.152344 315.824219 242.371094 306.039062 243.234375 297.214844 L 251.636719 210.914062 L 262.113281 204.867188 L 273.664062 211.535156 L 266.214844 225.589844 L 259.726562 296.214844 C 258.046875 310.261719 253.34375 322.289062 241.894531 328.898438 L 210.867188 347.582031 L 155.464844 375.667969" fill="#2552ab"/></g><g><path d="M 158.292969 374.957031 C 139.476562 381.105469 203.789062 346.371094 240.441406 326.441406 C 247.703125 322.492188 253.921875 312.707031 254.78125 303.882812 L 263.1875 217.585938 L 273.664062 211.535156 L 278.621094 225.898438 L 272.5625 230.652344 L 264.453125 298.542969 C 262.777344 312.585938 253.054688 327.882812 241.609375 334.492188 L 220.152344 347.519531 L 158.292969 374.957031" fill="#273e7e"/></g><g><path d="M 98.371094 342.707031 C 96.371094 343.359375 86.589844 336.171875 86.332031 335.96875 C 84.1875 334.261719 139.039062 304.625 171.796875 286.8125 C 179.058594 282.859375 185.277344 273.078125 186.136719 264.25 L 194.542969 177.953125 L 205.019531 171.902344 L 216.570312 178.570312 L 209.117188 192.628906 L 202.628906 263.253906 C 200.953125 277.300781 196.25 289.328125 184.800781 295.9375 L 153.773438 314.617188 L 98.371094 342.707031" fill="#2552ab"/></g><g><path d="M 101.199219 341.992188 C 82.382812 348.144531 146.695312 313.410156 183.347656 293.480469 C 190.609375 289.53125 196.828125 279.746094 197.6875 270.917969 L 206.09375 184.621094 L 216.570312 178.570312 L 221.523438 192.9375 L 215.46875 197.691406 L 207.359375 265.578125 C 205.683594 279.625 195.960938 294.921875 184.515625 301.527344 L 163.058594 314.558594 L 101.199219 341.992188" fill="#273e7e"/></g><g><path d="M 377.476562 178.976562 C 377.476562 178.976562 352.800781 196.96875 345.015625 205.777344 C 345.015625 201.054688 346.761719 192.589844 346.761719 192.589844 L 369.265625 175.316406 L 337.402344 156.132812 L 369.265625 173.277344 C 369.265625 173.277344 373.476562 130.820312 384.324219 130.820312 C 384.789062 136.351562 377.476562 178.976562 377.476562 178.976562" fill="#060707"/></g><g><path d="M 98.011719 342.867188 C 97.773438 342.867188 97.632812 342.808594 97.601562 342.691406 C 97.773438 342.730469 97.929688 342.746094 98.066406 342.746094 C 98.175781 342.746094 98.273438 342.734375 98.359375 342.710938 C 98.707031 342.6875 99.222656 342.582031 99.921875 342.386719 C 99.039062 342.710938 98.394531 342.867188 98.011719 342.867188 M 146.9375 321.707031 L 163.058594 314.558594 C 162.914062 314.621094 156.070312 317.660156 146.9375 321.707031 M 163.058594 314.558594 L 184.515625 301.527344 C 185.367188 301.035156 186.210938 300.496094 187.039062 299.910156 C 177.804688 306.648438 163.058594 314.558594 163.058594 314.558594 M 219.539062 282.964844 L 205.363281 274.78125 C 204.851562 276.234375 204.25 277.640625 203.507812 279.074219 C 204.148438 277.632812 204.726562 276.171875 205.230469 274.703125 L 219.539062 282.964844 M 228.515625 276.660156 L 228.511719 276.660156 L 228.46875 276.636719 L 228.515625 276.660156 M 209.46875 265.664062 L 207.484375 264.523438 L 207.992188 260.273438 C 207.851562 261.824219 207.695312 263.210938 207.535156 264.53125 L 209.46875 265.664062 L 209.46875 265.617188 L 209.46875 265.664062 M 209.46875 174.472656 L 209.46875 171.363281 L 209.46875 174.472656" fill="#cac4b3"/></g><g><path d="M 228.585938 233.792969 L 228.582031 233.792969 L 221.828125 229.894531 L 228.585938 233.792969 M 221.828125 216.375 L 221.828125 208.046875 L 221.832031 208.046875 L 221.828125 216.375 M 228.585938 200.464844 L 228.582031 200.464844 L 221.828125 196.5625 L 221.828125 183.886719 L 221.832031 196.566406 L 228.585938 200.464844" fill="#1b1815"/></g><g><path d="M 221.828125 272.800781 L 209.46875 265.664062 L 209.46875 265.617188 L 209.480469 247.8125 L 210.996094 235.121094 L 221.828125 241.375 L 221.828125 272.800781 M 221.828125 229.894531 L 212.28125 224.382812 L 214.71875 203.941406 L 221.828125 208.046875 L 221.828125 229.894531 M 221.828125 196.5625 L 218.992188 194.925781 L 221.523438 192.9375 L 216.570312 178.570312 L 209.46875 174.472656 L 209.46875 171.363281 L 221.828125 178.5 L 221.828125 196.5625" fill="#383328"/></g><g><path d="M 228.511719 276.660156 L 228.441406 276.621094 L 228.46875 276.636719 L 228.511719 276.660156 M 221.828125 272.800781 L 207.484375 264.523438 L 209.46875 265.664062 L 221.828125 272.800781 M 228.582031 233.792969 L 212.28125 224.382812 L 221.828125 229.894531 L 228.582031 233.792969 M 228.582031 200.464844 L 218.992188 194.925781 L 221.828125 196.5625 L 228.582031 200.464844" fill="#0d0c0c"/></g><g><path d="M 219.609375 283.003906 L 219.539062 282.964844 L 205.230469 274.703125 C 205.886719 272.785156 206.417969 270.855469 206.8125 268.933594 L 219.609375 276.320312 L 219.609375 283.003906 M 221.828125 241.375 L 210.996094 235.121094 L 211.742188 228.871094 L 219.609375 233.414062 L 219.609375 240.09375 L 221.828125 241.375 M 221.832031 208.046875 L 221.828125 208.046875 L 214.71875 203.941406 L 215.46875 197.691406 L 220.269531 200.464844 L 220.269531 206.988281 L 221.832031 208.046875 M 221.828125 178.5 L 209.46875 171.363281 L 221.828125 178.5" fill="#383328"/></g><g><path d="M 220.269531 200.464844 L 215.46875 197.691406 L 218.992188 194.925781 L 228.582031 200.464844 L 220.269531 200.464844" fill="#4c4336"/></g><g><path d="M 228.582031 233.792969 L 219.609375 233.414062 L 211.742188 228.871094 L 212.28125 224.382812 L 228.582031 233.792969" fill="#4c4336"/></g><g><path d="M 228.511719 276.660156 L 219.609375 276.320312 L 206.8125 268.933594 C 207.042969 267.8125 207.226562 266.691406 207.359375 265.578125 L 207.484375 264.523438 L 221.828125 272.800781 L 221.828125 272.890625 L 228.441406 276.621094 L 228.511719 276.660156" fill="#4c4336"/></g><g><path d="M 98.066406 342.746094 C 97.929688 342.746094 97.773438 342.730469 97.601562 342.691406 C 97.523438 342.410156 98.101562 341.789062 99.410156 340.902344 C 97.871094 342.066406 97.390625 342.714844 98.230469 342.714844 C 98.269531 342.714844 98.3125 342.710938 98.359375 342.710938 C 98.273438 342.734375 98.175781 342.746094 98.066406 342.746094 M 197.207031 273.902344 C 197.40625 272.648438 197.632812 270.960938 197.878906 268.945312 L 197.6875 270.917969 C 197.59375 271.902344 197.429688 272.902344 197.207031 273.902344 M 202.699219 219.460938 C 202.699219 219.453125 202.699219 219.449219 202.699219 219.449219 L 206.09375 184.621094 L 202.699219 219.460938" fill="#24427c"/></g><g><path d="M 98.230469 342.714844 C 97.390625 342.714844 97.871094 342.066406 99.410156 340.902344 C 99.421875 340.894531 99.433594 340.886719 99.445312 340.878906 C 102.179688 339.042969 117.886719 329.066406 146.75 313.574219 C 175.613281 298.082031 180.8125 295.109375 184.3125 293.09375 C 187.816406 291.078125 195.382812 283.453125 197.011719 275.007812 C 197.074219 274.691406 197.140625 274.320312 197.207031 273.902344 C 197.429688 272.902344 197.59375 271.902344 197.6875 270.917969 L 197.878906 268.945312 C 199.742188 253.722656 202.644531 220.089844 202.699219 219.460938 L 206.09375 184.621094 L 216.570312 178.570312 L 221.523438 192.9375 L 218.992188 194.925781 L 215.46875 197.691406 L 214.71875 203.941406 L 212.28125 224.382812 L 211.742188 228.871094 L 210.996094 235.121094 L 209.480469 247.8125 L 209.480469 247.109375 C 209.480469 247.109375 208.675781 253.226562 207.992188 260.273438 L 207.484375 264.523438 L 207.359375 265.578125 C 207.226562 266.691406 207.042969 267.8125 206.8125 268.933594 C 206.417969 270.855469 205.886719 272.785156 205.230469 274.703125 C 204.726562 276.171875 204.148438 277.632812 203.507812 279.074219 C 203.503906 279.078125 203.503906 279.082031 203.5 279.085938 C 200.484375 284.90625 196.398438 293.058594 187.175781 299.816406 C 187.128906 299.847656 187.085938 299.878906 187.039062 299.910156 C 186.210938 300.496094 185.367188 301.035156 184.515625 301.527344 L 163.058594 314.558594 L 146.9375 321.707031 C 128.875 329.710938 101.851562 341.664062 99.960938 342.371094 C 99.949219 342.375 99.9375 342.378906 99.921875 342.386719 C 99.222656 342.582031 98.707031 342.6875 98.359375 342.710938 C 98.3125 342.710938 98.269531 342.714844 98.230469 342.714844" fill="#202f5b"/></g><g><path d="M 155.453125 375.671875 C 155.984375 375.636719 156.914062 375.40625 158.292969 374.957031 L 220.152344 347.519531 L 241.609375 334.492188 C 241.617188 334.488281 241.628906 334.480469 241.636719 334.476562 C 241.628906 334.480469 241.617188 334.488281 241.609375 334.492188 L 220.152344 347.519531 L 158.292969 374.957031 C 156.914062 375.40625 155.984375 375.636719 155.453125 375.671875 M 241.652344 334.46875 C 241.65625 334.464844 241.660156 334.460938 241.664062 334.457031 C 241.660156 334.460938 241.65625 334.464844 241.652344 334.46875 M 241.6875 334.449219 C 241.6875 334.445312 241.691406 334.445312 241.691406 334.445312 C 241.691406 334.445312 241.6875 334.445312 241.6875 334.449219 M 276.914062 316.089844 L 262.402344 307.710938 L 276.914062 316.089844 M 275.398438 255.15625 L 275.398438 252.378906 L 275.398438 255.15625" fill="#cac4b3"/></g><g><path d="M 269.570312 255.683594 L 270.519531 247.757812 L 269.570312 255.683594 M 275.398438 252.378906 L 275.398438 250.613281 L 275.398438 252.378906" fill="#2d2722"/></g><g><path d="M 275.398438 250.613281 L 275.398438 249.226562 L 275.398438 250.613281 M 270.519531 247.757812 L 270.675781 246.460938 L 270.519531 247.757812" fill="#202f5b"/></g><g><path d="M 275.398438 249.226562 L 275.398438 238.972656 L 275.398438 249.226562 M 270.675781 246.460938 L 271.816406 236.90625 L 270.675781 246.460938 M 275.398438 216.566406 L 275.398438 209.429688 L 275.398438 216.566406" fill="#2648a2"/></g><g><path d="M 281.496094 307.25 L 275.398438 303.730469 L 275.398438 272.304688 L 281.496094 275.824219 L 281.496094 307.25 M 281.496094 264.34375 L 275.398438 260.820312 L 275.398438 238.976562 L 276.914062 239.851562 L 281.496094 242.496094 L 281.496094 264.34375 M 281.496094 231.011719 L 276.085938 227.886719 L 278.621094 225.898438 L 275.398438 216.566406 L 275.398438 209.429688 L 281.496094 212.949219 L 281.496094 231.011719" fill="#383328"/></g><g><path d="M 281.496094 307.253906 L 275.398438 303.730469 L 281.496094 307.25 L 281.496094 307.253906 M 270.546875 300.929688 L 266.277344 298.464844 L 270.546875 300.929688 M 281.496094 264.34375 L 275.398438 260.824219 L 275.398438 260.820312 L 281.496094 264.34375 M 281.496094 231.015625 L 276.085938 227.890625 L 276.085938 227.886719 L 281.496094 231.011719 L 281.496094 231.015625" fill="#0d0c0c"/></g><g><path d="M 276.914062 316.089844 L 262.402344 307.710938 C 262.398438 307.699219 262.382812 307.640625 262.363281 307.550781 C 263 305.675781 263.519531 303.78125 263.90625 301.898438 L 276.914062 309.40625 L 276.914062 316.089844 M 281.578125 309.40625 L 281.542969 309.40625 L 281.578125 307.300781 L 281.496094 307.253906 L 281.496094 275.824219 L 275.398438 272.304688 L 268.089844 268.085938 L 268.839844 261.835938 L 277.339844 266.742188 L 276.914062 266.742188 L 276.914062 272.890625 L 281.578125 275.007812 L 281.578125 309.40625 M 281.578125 266.742188 L 281.539062 266.742188 L 281.578125 264.390625 L 281.578125 266.742188 M 281.578125 264.390625 L 281.496094 264.34375 L 281.496094 242.496094 L 281.578125 264.390625 M 276.914062 239.851562 L 275.398438 238.976562 L 275.398438 238.972656 L 271.816406 236.90625 L 272.5625 230.652344 L 276.734375 233.0625 L 276.914062 239.851562 M 281.496094 231.015625 L 281.496094 212.949219 L 275.398438 209.429688 L 275.398438 209.425781 L 281.496094 212.949219 L 281.496094 231.015625" fill="#383328"/></g><g><path d="M 276.734375 233.0625 L 272.5625 230.65625 L 272.5625 230.652344 L 276.085938 227.890625 L 281.496094 231.015625 L 281.496094 233.0625 L 276.734375 233.0625" fill="#4c4336"/></g><g><path d="M 281.539062 266.742188 L 277.339844 266.742188 L 268.839844 261.835938 L 269.375 257.34375 L 275.398438 260.824219 L 281.496094 264.34375 L 281.578125 264.390625 L 281.539062 266.742188" fill="#4c4336"/></g><g><path d="M 281.542969 309.40625 L 276.914062 309.40625 L 263.90625 301.898438 C 264.105469 300.933594 264.269531 299.976562 264.394531 299.019531 C 265.464844 298.722656 266.269531 298.46875 266.277344 298.464844 L 270.546875 300.929688 L 275.398438 303.730469 L 281.496094 307.253906 L 281.578125 307.300781 L 281.542969 309.40625" fill="#4c4336"/></g><g><path d="M 155.324219 375.675781 C 155.363281 375.675781 155.40625 375.675781 155.453125 375.671875 C 155.40625 375.675781 155.363281 375.675781 155.324219 375.675781 M 217.492188 338.925781 C 225.628906 334.488281 233.527344 330.199219 240.441406 326.441406 C 247.539062 322.582031 253.644531 313.144531 254.714844 304.476562 C 253.644531 313.144531 247.539062 322.582031 240.441406 326.441406 C 233.527344 330.199219 225.628906 334.488281 217.492188 338.925781" fill="#24427c"/></g><g><path d="M 155.324219 375.675781 C 150.726562 375.671875 185.917969 356.148438 217.492188 338.925781 C 225.628906 334.488281 233.527344 330.199219 240.441406 326.441406 C 247.539062 322.582031 253.644531 313.144531 254.714844 304.476562 C 254.742188 304.277344 254.761719 304.078125 254.78125 303.882812 L 263.1875 217.585938 L 273.664062 211.535156 L 275.398438 216.5625 L 275.398438 216.566406 L 278.621094 225.898438 L 276.085938 227.886719 L 276.085938 227.890625 L 272.5625 230.652344 L 271.816406 236.90625 L 270.675781 246.460938 L 270.519531 247.757812 L 269.570312 255.683594 L 269.375 257.34375 L 268.839844 261.835938 L 268.089844 268.085938 L 264.453125 298.542969 C 264.433594 298.703125 264.382812 298.867188 264.363281 299.027344 C 264.375 299.023438 264.382812 299.023438 264.394531 299.019531 C 264.269531 299.976562 264.105469 300.933594 263.90625 301.898438 C 263.519531 303.78125 263 305.675781 262.363281 307.550781 C 262.351562 307.511719 262.34375 307.46875 262.332031 307.425781 C 258.574219 318.566406 250.710938 329.199219 241.691406 334.445312 C 241.691406 334.445312 241.6875 334.445312 241.6875 334.449219 C 241.679688 334.449219 241.671875 334.453125 241.664062 334.457031 C 241.660156 334.460938 241.65625 334.464844 241.652344 334.46875 C 241.648438 334.46875 241.644531 334.472656 241.636719 334.476562 C 241.628906 334.480469 241.617188 334.488281 241.609375 334.492188 L 220.152344 347.519531 L 158.292969 374.957031 C 156.914062 375.40625 155.984375 375.636719 155.453125 375.671875 C 155.40625 375.675781 155.363281 375.675781 155.324219 375.675781" fill="#202f5b"/></g><g><path d="M 254.472656 47.453125 L 249.652344 44.675781 L 254.492188 47.441406 L 254.472656 47.453125" fill="#cac4b3"/></g><g><path d="M 246.535156 59.820312 L 238.710938 55.3125 L 238.710938 48.035156 L 238.710938 55.300781 L 246.535156 59.820312" fill="#1b1815"/></g><g><path d="M 246.539062 52.546875 L 238.722656 48.03125 L 246.535156 42.890625 L 249.652344 44.675781 L 254.472656 47.453125 L 246.539062 52.546875" fill="#3a3429"/></g><g><path d="M 246.535156 59.820312 L 238.710938 55.300781 L 238.710938 48.035156 L 238.722656 48.03125 L 246.539062 52.546875 L 246.535156 52.546875 L 246.535156 59.820312" fill="#27231b"/></g><g><path d="M 290.992188 53.484375 L 286.539062 50.894531 L 286.546875 50.890625 L 290.988281 53.457031 C 290.992188 53.464844 290.992188 53.476562 290.992188 53.484375" fill="#cac4b3"/></g><g><path d="M 284.316406 43.378906 L 283.929688 39.914062 C 286.097656 36.425781 290.308594 35.617188 290.308594 35.617188 C 290.308594 35.617188 290.679688 35.835938 291.246094 36.171875 C 288.59375 38.464844 286.269531 40.847656 284.316406 43.378906" fill="#383328"/></g><g><path d="M 290.988281 53.457031 L 286.546875 50.890625 L 286.917969 50.675781 L 287.078125 50.589844 L 287.078125 46.378906 L 287.074219 46.378906 L 287.074219 46.367188 L 286.179688 45.851562 L 284.480469 44.847656 L 284.3125 43.402344 L 284.320312 43.40625 L 284.316406 43.378906 C 286.269531 40.847656 288.59375 38.464844 291.246094 36.171875 C 292.847656 37.121094 296 38.984375 296.691406 39.359375 C 295.605469 39.359375 289.96875 42.695312 289.328125 46.144531 L 291.074219 47.101562 C 291.074219 47.101562 290.90625 51.199219 290.988281 53.457031" fill="#383328"/></g><g><path d="M 286.539062 50.894531 L 286.523438 50.886719 L 286.917969 50.675781 L 286.546875 50.890625 L 286.539062 50.894531 M 287.074219 46.378906 L 287.066406 46.371094 L 287.074219 46.367188 L 287.074219 46.378906" fill="#1b1815"/></g><g><path d="M 287.066406 46.371094 L 286.179688 45.851562 L 287.074219 46.367188 L 287.066406 46.371094" fill="#564e3c"/></g><g><path d="M 334.894531 78.792969 L 333.417969 77.949219 L 333.808594 77.726562 L 333.957031 77.644531 L 333.957031 73.433594 L 333.945312 73.429688 L 333.945312 73.425781 L 333.75 73.3125 L 331.394531 71.921875 C 333.796875 69.195312 336.546875 66.65625 339.695312 64.15625 C 341.257812 65.078125 343.066406 66.140625 343.570312 66.414062 C 342.464844 66.414062 336.847656 69.734375 336.210938 73.179688 L 337.953125 74.15625 C 337.953125 74.15625 337.953125 74.496094 337.910156 75.050781 C 336.847656 76.285156 335.828125 77.519531 334.894531 78.792969" fill="#383328"/></g><g><path d="M 331.394531 71.921875 L 331.359375 71.902344 L 331.191406 70.457031 L 330.808594 66.96875 C 332.976562 63.480469 337.1875 62.671875 337.1875 62.671875 C 337.1875 62.671875 338.351562 63.363281 339.695312 64.15625 C 336.546875 66.65625 333.796875 69.195312 331.394531 71.921875" fill="#383328"/></g><g><path d="M 333.417969 77.949219 L 333.402344 77.941406 L 333.808594 77.726562 L 333.417969 77.949219 M 333.945312 73.429688 L 333.945312 73.425781 L 333.945312 73.429688" fill="#1b1815"/></g><g><path d="M 333.945312 73.429688 L 333.75 73.3125 L 333.945312 73.425781 L 333.945312 73.429688" fill="#564e3c"/></g><g><path d="M 312.480469 216.363281 L 312.472656 216.242188 L 312.472656 211.859375 L 312.789062 209.425781 L 364.449219 208.335938 L 357.585938 215.144531 L 312.480469 216.363281" fill="#383328"/></g><g><path d="M 357.585938 215.144531 L 364.449219 208.335938 L 364.453125 208.335938 L 357.589844 215.144531 L 357.585938 215.144531" fill="#1b1815"/></g><g><path d="M 312.472656 216.242188 L 312.289062 213.289062 L 312.472656 211.859375 L 312.472656 216.242188" fill="#1b1815"/></g><g><path d="M 313.9375 231.855469 L 312.472656 230.992188 L 312.472656 224.960938 L 348.464844 224.195312 L 341.527344 231.085938 L 313.9375 231.855469" fill="#383328"/></g><g><path d="M 312.472656 231.894531 L 312.472656 230.992188 L 313.9375 231.855469 L 312.472656 231.894531" fill="#2648a2"/></g><g><path d="M 429.710938 186.34375 L 429.570312 186.265625 C 429.050781 174.667969 426.910156 165.878906 420.113281 158.972656 C 428.257812 166.734375 429.558594 179.890625 429.710938 186.34375" fill="#cac4b3"/></g><g><path d="M 399.6875 177.277344 L 399.679688 177.273438 L 399.679688 168.761719 L 404.96875 165.882812 C 402.695312 170.257812 401.023438 174 399.6875 177.277344" fill="#2648a2"/></g><g><path d="M 339.640625 246.839844 L 336.097656 244.792969 C 336.246094 244.785156 336.394531 244.777344 336.542969 244.769531 L 339.640625 246.839844" fill="#221d1a"/></g><g><path d="M 330.785156 241.726562 L 328.363281 240.328125 L 325.839844 238.847656 L 330.941406 241.589844 L 330.824219 241.703125 C 330.8125 241.714844 330.800781 241.71875 330.785156 241.726562" fill="#383328"/></g><g><path d="M 330.824219 241.703125 L 330.941406 241.589844 L 330.976562 241.609375 C 330.929688 241.640625 330.875 241.675781 330.824219 241.703125 M 381.472656 207.695312 C 381.496094 207.675781 381.515625 207.65625 381.535156 207.640625 C 388.078125 201.890625 392.496094 194.75 395.335938 188.84375 C 392.8125 195.386719 390.058594 200.371094 381.472656 207.695312 M 399.667969 177.324219 C 399.675781 177.292969 399.679688 177.273438 399.679688 177.273438 L 399.6875 177.277344 C 399.679688 177.296875 399.675781 177.308594 399.667969 177.324219" fill="#1b1815"/></g><g><path d="M 402.273438 236.714844 L 403.789062 235.820312 C 404.191406 235.589844 404.515625 235.285156 404.734375 234.917969 C 404.355469 235.558594 403.789062 235.820312 403.789062 235.820312 L 402.273438 236.714844 M 405.070312 233.683594 C 405.070312 233.683594 405.070312 233.683594 405.070312 233.679688 C 405.070312 233.683594 405.070312 233.683594 405.070312 233.683594 M 405.070312 233.675781 C 405.070312 233.671875 405.070312 233.671875 405.070312 233.671875 C 405.070312 233.671875 405.070312 233.671875 405.070312 233.675781 M 405.070312 233.664062 C 405.070312 233.664062 405.070312 233.660156 405.070312 233.660156 C 405.070312 233.660156 405.070312 233.664062 405.070312 233.664062 M 405.070312 233.65625 C 405.070312 233.652344 405.070312 233.648438 405.070312 233.644531 C 405.070312 233.648438 405.070312 233.652344 405.070312 233.65625 M 420.160156 198.71875 C 422.859375 195.847656 425.808594 193.378906 428.894531 191.480469 C 429.074219 191.375 429.425781 191.132812 429.59375 190.714844 C 429.386719 191.335938 428.894531 191.480469 428.894531 191.480469 C 425.898438 193.710938 422.703125 196.238281 420.160156 198.71875 M 429.6875 190.09375 C 429.664062 188.785156 429.628906 187.507812 429.570312 186.265625 L 429.710938 186.34375 C 429.761719 188.429688 429.6875 189.8125 429.6875 190.09375" fill="#221d1a"/></g><g><path d="M 356.851562 257.625 C 354.710938 248.839844 348.554688 245.808594 343.554688 244.84375 C 351.578125 245.953125 355.328125 250.597656 356.851562 257.625 M 336.097656 244.792969 L 336.007812 244.742188 C 336.15625 244.730469 336.304688 244.71875 336.453125 244.707031 L 336.542969 244.769531 C 336.394531 244.777344 336.246094 244.785156 336.097656 244.792969 M 335.136719 244.238281 L 330.785156 241.726562 C 330.800781 241.71875 330.8125 241.714844 330.824219 241.703125 C 330.875 241.675781 330.929688 241.640625 330.976562 241.609375 L 330.988281 241.617188 C 332.949219 240.441406 368.378906 219.171875 381.472656 207.695312 C 390.058594 200.371094 392.8125 195.386719 395.335938 188.84375 C 398.289062 182.691406 399.53125 177.871094 399.667969 177.324219 C 399.675781 177.308594 399.679688 177.296875 399.6875 177.277344 C 401.023438 174 402.695312 170.257812 404.96875 165.882812 L 413.335938 161.324219 C 412.992188 161.765625 412.667969 162.253906 412.371094 162.777344 C 388.878906 204.15625 415.0625 195.125 335.46875 244.035156 L 335.308594 243.941406 L 335.460938 244.042969 C 335.351562 244.109375 335.246094 244.175781 335.136719 244.238281 M 364.453125 225.71875 L 331.011719 241.628906 L 335.308594 243.941406 L 364.453125 225.71875 M 413.53125 161.074219 C 414.703125 159.601562 415.8125 158.863281 416.773438 158.542969 C 415.679688 158.980469 414.535156 159.855469 413.53125 161.074219" fill="#2648a2"/></g><g><path d="M 357.589844 263.074219 C 357.5 261.050781 357.242188 259.238281 356.851562 257.625 C 355.328125 250.597656 351.578125 245.953125 343.554688 244.84375 C 341.882812 244.519531 340.339844 244.425781 339.121094 244.425781 C 337.484375 244.425781 336.433594 244.59375 336.433594 244.59375 L 335.46875 244.035156 C 415.0625 195.125 388.878906 204.15625 412.371094 162.777344 C 412.667969 162.253906 412.992188 161.765625 413.335938 161.324219 L 413.347656 161.316406 C 413.40625 161.234375 413.472656 161.15625 413.53125 161.074219 C 414.535156 159.855469 415.679688 158.980469 416.773438 158.542969 C 417.234375 158.386719 417.660156 158.328125 418.046875 158.328125 C 419.3125 158.328125 420.113281 158.972656 420.113281 158.972656 C 426.910156 165.878906 429.050781 174.667969 429.570312 186.265625 C 429.628906 187.507812 429.664062 188.785156 429.6875 190.09375 C 429.6875 190.339844 429.652344 190.546875 429.59375 190.714844 C 429.425781 191.132812 429.074219 191.375 428.894531 191.480469 C 425.808594 193.378906 422.859375 195.847656 420.160156 198.71875 C 419.195312 199.65625 418.328125 200.589844 417.597656 201.496094 C 404.496094 217.714844 405.070312 232.332031 405.070312 233.644531 C 405.070312 233.648438 405.070312 233.652344 405.070312 233.65625 C 405.070312 233.65625 405.070312 233.65625 405.070312 233.660156 C 405.070312 233.660156 405.070312 233.664062 405.070312 233.664062 C 405.070312 233.667969 405.070312 233.667969 405.070312 233.671875 C 405.070312 233.671875 405.070312 233.671875 405.070312 233.675781 C 405.070312 233.675781 405.070312 233.679688 405.070312 233.679688 C 405.070312 233.683594 405.070312 233.683594 405.070312 233.683594 C 405.066406 234.195312 404.921875 234.605469 404.734375 234.917969 C 404.515625 235.285156 404.191406 235.589844 403.789062 235.820312 L 402.273438 236.714844 L 357.589844 263.074219 M 336.007812 244.742188 L 335.136719 244.238281 C 335.246094 244.175781 335.351562 244.109375 335.460938 244.042969 L 336.453125 244.707031 C 336.304688 244.71875 336.15625 244.730469 336.007812 244.742188" fill="#202f5b"/></g><g><path d="M 315.859375 272.890625 C 322.53125 255.390625 339.640625 246.839844 339.640625 246.839844 C 339.640625 246.839844 322.472656 255.570312 315.859375 272.890625" fill="#202f5b"/></g><g><path d="M 315.859375 272.890625 L 312.472656 270.90625 L 312.472656 242.277344 C 315.761719 239.222656 320.746094 238.730469 323.605469 238.730469 C 324.953125 238.730469 325.828125 238.839844 325.828125 238.839844 L 325.839844 238.847656 L 328.363281 240.328125 L 330.785156 241.726562 L 335.136719 244.238281 L 336.007812 244.742188 L 336.097656 244.792969 L 339.640625 246.839844 C 339.640625 246.839844 322.53125 255.390625 315.859375 272.890625" fill="#2648a2"/></g><g><path d="M 399.679688 177.273438 L 399.671875 168.765625 L 399.679688 168.761719 L 399.679688 177.273438" fill="#1b1815"/></g><g><path d="M 312.472656 270.90625 L 312.289062 242.453125 C 312.347656 242.390625 312.410156 242.335938 312.472656 242.277344 L 312.472656 270.90625" fill="#1b1815"/></g><g><path d="M 276.992188 37.742188 C 275.652344 37.742188 273.640625 37.003906 273.589844 35.304688 C 273.78125 35.820312 274.226562 36.3125 274.921875 36.714844 C 275.773438 37.207031 276.859375 37.480469 277.972656 37.535156 C 277.765625 37.671875 277.414062 37.742188 276.992188 37.742188" fill="#f89f3c"/></g><g><path d="M 277.972656 37.535156 C 276.859375 37.480469 275.773438 37.207031 274.921875 36.714844 C 274.226562 36.3125 273.78125 35.820312 273.589844 35.304688 C 273.589844 35.300781 273.589844 35.300781 273.589844 35.296875 C 274.84375 36.695312 277.972656 37.535156 277.972656 37.535156" fill="#fabd5d"/></g><g><path d="M 323.878906 64.769531 C 322.554688 64.769531 320.585938 64.054688 320.476562 62.410156 C 320.679688 62.910156 321.113281 63.386719 321.789062 63.773438 C 322.632812 64.261719 323.703125 64.535156 324.800781 64.59375 C 324.589844 64.710938 324.261719 64.769531 323.878906 64.769531" fill="#f89f3c"/></g><g><path d="M 324.800781 64.59375 C 323.703125 64.535156 322.632812 64.261719 321.789062 63.773438 C 321.113281 63.386719 320.679688 62.910156 320.476562 62.410156 C 320.476562 62.382812 320.472656 62.351562 320.472656 62.324219 C 321.726562 63.722656 324.855469 64.558594 324.855469 64.558594 C 324.839844 64.570312 324.820312 64.582031 324.800781 64.59375" fill="#fabd5d"/></g><g><path d="M 220.230469 45.832031 C 220.058594 45.757812 213.828125 43.027344 210.417969 40.167969 L 220.230469 45.832031" fill="#638e7a"/></g><g><path d="M 220.234375 45.835938 C 220.234375 45.835938 220.234375 45.835938 220.230469 45.832031 L 210.417969 40.167969 C 210.417969 40.167969 210.414062 40.164062 210.414062 40.164062 C 210.410156 40.160156 210.410156 40.160156 210.414062 40.160156 C 210.589844 40.160156 217.878906 43.125 220.234375 45.835938" fill="#79a08b"/></g><g><path d="M 286.253906 84.113281 C 286.253906 84.113281 279.890625 81.34375 276.433594 78.445312 C 276.429688 78.441406 276.429688 78.441406 276.433594 78.441406 C 276.472656 78.441406 276.867188 78.589844 277.484375 78.847656 L 285.8125 83.65625 C 285.972656 83.808594 286.121094 83.960938 286.253906 84.113281" fill="#638e7a"/></g><g><path d="M 285.8125 83.65625 L 277.484375 78.847656 C 279.472656 79.6875 283.746094 81.691406 285.8125 83.65625" fill="#79a08b"/></g><g><path d="M 272.902344 67.765625 L 255.550781 57.746094 C 255.371094 57.613281 255.214844 57.488281 255.078125 57.375 C 255.078125 57.375 255.078125 57.371094 255.078125 57.371094 C 255.140625 57.371094 266.335938 63.753906 272.902344 67.765625" fill="#668f7c"/></g><g><path d="M 277.140625 70.5 C 277.140625 70.5 259.960938 61.058594 255.550781 57.746094 L 272.902344 67.765625 C 274.871094 68.96875 276.425781 69.957031 277.140625 70.5" fill="#4e7869"/></g><g><path d="M 238.863281 181.652344 C 236.027344 180.3125 224.414062 174.683594 217.046875 169.058594 L 238.863281 181.652344" fill="#638e7a"/></g><g><path d="M 239.503906 181.953125 C 239.503906 181.953125 239.277344 181.847656 238.863281 181.652344 L 217.046875 169.058594 C 217.046875 169.054688 217.054688 169.050781 217.0625 169.050781 C 217.738281 169.050781 235.882812 179.46875 239.503906 181.953125" fill="#79a08b"/></g><g><path d="M 243.980469 214.21875 C 243.980469 214.21875 229.964844 207.769531 221.523438 201.324219 C 221.527344 201.320312 221.535156 201.316406 221.542969 201.316406 C 221.617188 201.316406 221.90625 201.445312 222.363281 201.675781 L 243.21875 213.714844 C 243.515625 213.90625 243.773438 214.074219 243.980469 214.21875" fill="#638e7a"/></g><g><path d="M 243.21875 213.714844 L 222.363281 201.675781 C 225.816406 203.40625 238.902344 210.9375 243.21875 213.714844" fill="#79a08b"/></g><g><path d="M 243.027344 246.9375 C 243.027344 246.9375 229.011719 240.484375 220.574219 234.039062 C 220.574219 234.035156 220.582031 234.035156 220.589844 234.035156 C 220.621094 234.035156 220.695312 234.058594 220.800781 234.101562 L 243.027344 246.933594 C 243.027344 246.933594 243.027344 246.933594 243.027344 246.9375" fill="#638e7a"/></g><g><path d="M 243.027344 246.933594 L 220.800781 234.101562 C 222.953125 235.003906 239.578125 244.566406 243.027344 246.933594" fill="#79a08b"/></g><g><path d="M 242.4375 289.5 C 240.964844 288.816406 228.066406 282.738281 220.117188 276.667969 C 220.117188 276.664062 220.125 276.664062 220.132812 276.664062 C 220.15625 276.664062 220.195312 276.675781 220.253906 276.695312 L 242.4375 289.5" fill="#638e7a"/></g><g><path d="M 242.574219 289.566406 C 242.574219 289.566406 242.527344 289.542969 242.4375 289.5 L 220.253906 276.695312 C 221.976562 277.332031 239.070312 287.160156 242.574219 289.566406" fill="#79a08b"/></g><g><path d="M 315.1875 58.015625 C 310.957031 57.0625 307.09375 54.839844 303.609375 52.328125 C 301.8125 51.027344 300.210938 49.488281 298.449219 48.15625 C 298.074219 47.878906 294.859375 44.679688 295.183594 44.664062 C 295.222656 44.660156 295.265625 44.660156 295.304688 44.660156 C 296.828125 44.660156 298.613281 45.996094 299.917969 46.738281 C 303.09375 48.542969 306.230469 50.359375 309.230469 52.457031 C 310.589844 53.40625 315.191406 56.050781 315.1875 58.015625" fill="#638e7a"/></g><g><path d="M 204.695312 184.316406 C 203.351562 184.316406 202.40625 183.6875 201.441406 183.1875 C 199.386719 182.035156 196.171875 180.773438 194.785156 178.9375 C 196.632812 179.097656 199.234375 181.027344 200.96875 181.820312 C 202.121094 182.347656 204.632812 183.054688 205.074219 184.300781 C 204.945312 184.3125 204.816406 184.316406 204.695312 184.316406" fill="#338ad1"/></g><g><path d="M 261.683594 217.222656 C 258.632812 216.351562 253.378906 214.789062 252.03125 211.519531 C 252.027344 211.515625 252.03125 211.511719 252.039062 211.511719 C 252.191406 211.511719 254.109375 212.128906 254.304688 212.230469 C 255.171875 212.6875 256.105469 213.246094 256.871094 213.859375 C 257.523438 214.382812 258.019531 214.953125 258.699219 215.414062 L 258.953125 215.574219 C 259.882812 216.121094 260.910156 216.433594 261.683594 217.222656" fill="#338ad1"/></g><g><path d="M 188.6875 283.753906 C 188.289062 283.753906 187.859375 283.734375 187.394531 283.679688 C 185.773438 282.449219 182.15625 280.292969 181.945312 278.15625 C 182.15625 278.125 182.367188 278.109375 182.570312 278.109375 C 184.699219 278.109375 186.460938 279.835938 187.996094 281.128906 C 188.765625 281.773438 190.449219 282.539062 190.441406 283.664062 C 189.953125 283.695312 189.367188 283.753906 188.6875 283.753906" fill="#338ad1"/></g><g><path d="M 248.75 317.363281 C 247.746094 317.363281 245.960938 316.785156 244.183594 315.503906 C 242.9375 314.648438 238.933594 312.414062 239.019531 310.382812 C 239.195312 310.320312 239.398438 310.289062 239.628906 310.289062 C 242.46875 310.289062 248.925781 314.988281 249.285156 317.285156 C 249.148438 317.339844 248.96875 317.363281 248.75 317.363281" fill="#338ad1"/></g><g clip-path="url(#a)"><path d="M 252.019531 290.605469 C 251.960938 290.867188 252.019531 291.136719 252.164062 291.429688 C 252.460938 291.960938 252.933594 292.695312 253.464844 293.640625 C 255.351562 296.96875 258.148438 302.804688 258.148438 310.199219 L 258.148438 324.316406 C 258.148438 334.808594 252.550781 344.53125 243.414062 349.808594 L 212.882812 367.429688 C 206.460938 371.144531 199.976562 371.613281 196.117188 371.675781 C 195.085938 371.675781 194.230469 371.644531 193.640625 371.644531 C 193.199219 371.644531 192.875 371.820312 192.667969 372.144531 C 192.550781 372.441406 192.402344 372.703125 192.257812 372.941406 L 192.257812 372.96875 C 191.726562 374.53125 191.578125 377.210938 189.871094 379.660156 C 189.160156 380.722656 188.128906 381.722656 186.65625 382.546875 L 186.511719 382.636719 L 131.195312 414.578125 C 129.429688 415.609375 127.570312 416.4375 125.65625 417.058594 C 125.480469 417.058594 125.300781 417.113281 125.097656 417.203125 L 125.007812 417.261719 L 124.976562 417.261719 L 124.832031 417.320312 C 124.652344 417.378906 124.507812 417.410156 124.359375 417.441406 C 121.796875 418.175781 119.144531 418.527344 116.492188 418.527344 C 111.394531 418.527344 106.292969 417.234375 101.757812 414.578125 L 67.71875 394.925781 C 67.511719 394.808594 67.308594 394.691406 67.101562 394.570312 C 63.476562 392.359375 60.824219 389.679688 58.820312 387.175781 C 57.023438 384.875 55.785156 382.753906 54.988281 381.339844 L 54.960938 381.308594 C 54.78125 380.957031 54.605469 380.632812 54.457031 380.367188 L 54.371094 380.277344 C 53.839844 379.425781 52.78125 379.71875 51.304688 380.160156 L 51.277344 380.160156 C 49.035156 380.898438 45.914062 381.988281 42.140625 380.128906 L 41.492188 379.777344 L 41.402344 379.71875 L 14.734375 364.335938 C 5.597656 359.089844 0 349.363281 0 338.84375 L 0 321.429688 C 0 313.886719 2.917969 307.960938 4.804688 304.660156 C 5.304688 303.835938 5.6875 303.15625 5.980469 302.6875 C 6.246094 302.242188 6.1875 301.832031 5.953125 301.390625 C 5.835938 301.242188 5.71875 301.066406 5.597656 300.890625 C 4.625 299.769531 2.652344 298.441406 1.324219 296.203125 C 0.558594 294.90625 0 293.257812 0 291.164062 L 0 278.167969 C 0 272.894531 1.414062 267.855469 3.949219 263.433594 C 6.511719 259.042969 10.167969 255.300781 14.734375 252.679688 L 53.28125 230.429688 C 58.140625 227.628906 63.035156 226.65625 66.777344 226.332031 C 69.339844 226.125 71.375 226.214844 72.492188 226.214844 L 72.554688 226.214844 C 73.703125 226.15625 73.9375 224.917969 74.351562 223.179688 C 74.851562 220.851562 75.617188 217.699219 79.152344 215.488281 C 79.242188 215.429688 79.359375 215.339844 79.476562 215.28125 L 126.953125 187.875 C 136.058594 182.628906 147.285156 182.628906 156.390625 187.875 L 178.550781 200.664062 C 178.730469 200.753906 178.878906 200.871094 179.054688 200.960938 C 179.289062 201.105469 179.523438 201.253906 179.761719 201.402344 C 185.535156 205.113281 188.867188 210.152344 190.664062 213.21875 C 191.164062 214.042969 191.519531 214.722656 191.8125 215.222656 C 192.019531 215.546875 192.257812 215.753906 192.578125 215.8125 C 192.757812 215.839844 192.933594 215.871094 193.167969 215.839844 C 194.289062 215.78125 195.9375 214.957031 198.003906 214.632812 C 199.769531 214.308594 201.863281 214.339844 204.132812 215.457031 C 204.339844 215.574219 204.574219 215.691406 204.78125 215.8125 L 243.414062 238.121094 C 247.980469 240.773438 251.636719 244.515625 254.199219 248.90625 C 255.113281 250.527344 255.910156 252.207031 256.496094 253.976562 C 257.589844 257.039062 258.148438 260.28125 258.148438 263.609375 L 258.148438 279.9375 C 258.148438 281.058594 258 282.027344 257.734375 282.882812 C 256.675781 286.359375 253.933594 288.101562 252.667969 289.515625 C 252.3125 289.898438 252.078125 290.25 252.019531 290.605469" fill="#db8546"/></g><g clip-path="url(#b)"><path d="M 256.496094 253.976562 C 250.515625 243.953125 244.0625 249.4375 232.71875 257.15625 C 221.34375 264.878906 129.429688 317.6875 122.148438 325.40625 C 114.871094 333.15625 118.964844 388.679688 119.40625 397.3125 C 119.820312 405.59375 119.085938 418.675781 124.359375 417.441406 C 121.796875 418.175781 119.144531 418.527344 116.492188 418.527344 C 111.394531 418.527344 106.292969 417.234375 101.757812 414.578125 L 67.71875 394.925781 C 67.511719 394.808594 67.308594 394.691406 67.101562 394.570312 C 63.476562 392.359375 60.824219 389.679688 58.820312 387.175781 C 58.40625 386.675781 58.054688 386.144531 57.699219 385.671875 C 56.609375 384.140625 55.785156 382.753906 55.195312 381.691406 C 55.105469 381.574219 55.046875 381.457031 54.988281 381.339844 L 54.960938 381.308594 C 54.78125 380.957031 54.605469 380.632812 54.457031 380.367188 L 54.371094 380.277344 C 53.839844 379.425781 52.78125 379.71875 51.304688 380.160156 L 51.277344 380.160156 C 49.035156 380.898438 45.914062 381.988281 42.140625 380.128906 L 41.492188 379.777344 L 41.402344 379.71875 L 14.734375 364.335938 C 5.597656 359.089844 0 349.363281 0 338.84375 L 0 321.429688 C 0 319.21875 0.265625 317.128906 0.675781 315.210938 C 1.503906 311.175781 3.035156 307.871094 4.332031 305.546875 C 4.480469 305.222656 4.65625 304.925781 4.804688 304.660156 C 5.304688 303.835938 5.6875 303.15625 5.980469 302.6875 C 6.246094 302.242188 6.1875 301.832031 5.953125 301.390625 C 5.835938 301.242188 5.71875 301.066406 5.597656 300.890625 C 4.625 299.769531 2.652344 298.441406 1.324219 296.203125 C 0.558594 294.90625 0 293.257812 0 291.164062 L 0 278.167969 C 0 272.894531 1.414062 267.855469 3.949219 263.433594 C 6.511719 259.042969 10.167969 255.300781 14.734375 252.679688 L 22.074219 248.464844 C 22.425781 248.257812 22.808594 248.023438 23.222656 247.785156 C 23.515625 247.609375 23.78125 247.460938 24.046875 247.285156 L 53.28125 230.429688 C 58.140625 227.628906 63.035156 226.65625 66.777344 226.332031 C 69.339844 226.125 71.375 226.214844 72.492188 226.214844 L 72.554688 226.214844 C 73.703125 226.15625 73.9375 224.917969 74.351562 223.179688 C 74.527344 222.324219 74.734375 221.382812 75.117188 220.40625 C 75.765625 218.699219 76.882812 216.902344 79.152344 215.488281 C 79.242188 215.429688 79.359375 215.339844 79.476562 215.28125 L 122.265625 190.585938 L 122.296875 190.558594 L 126.953125 187.875 C 136.058594 182.628906 147.285156 182.628906 156.390625 187.875 L 178.550781 200.664062 C 178.730469 200.753906 178.878906 200.871094 179.054688 200.960938 C 179.289062 201.105469 179.523438 201.253906 179.761719 201.402344 C 185.535156 205.113281 188.867188 210.152344 190.664062 213.21875 C 191.164062 214.042969 191.519531 214.722656 191.8125 215.222656 C 192.019531 215.546875 192.257812 215.753906 192.578125 215.8125 C 192.757812 215.839844 192.933594 215.871094 193.167969 215.839844 C 194.289062 215.78125 195.9375 214.957031 198.003906 214.632812 C 199.769531 214.308594 201.863281 214.339844 204.132812 215.457031 C 204.339844 215.574219 204.574219 215.691406 204.78125 215.8125 L 243.414062 238.121094 C 247.980469 240.773438 251.636719 244.515625 254.199219 248.90625 C 255.113281 250.527344 255.910156 252.207031 256.496094 253.976562" fill="#f08f4a"/></g><g><path d="M 49.945312 332.199219 C 48.730469 331.234375 47.210938 330.433594 46.636719 330.117188 C 28.222656 320.136719 8.589844 309.023438 7.042969 308.402344 C 6.101562 308.019531 5.128906 306.871094 4.332031 305.546875 C 3.035156 307.871094 1.503906 311.175781 0.675781 315.210938 C 2.152344 310.378906 5.539062 311.234375 12.082031 315.359375 C 23.488281 322.550781 35.929688 328.425781 47.859375 334.671875 C 48.6875 335.105469 50.347656 336.441406 51.285156 335.421875 C 52.195312 334.4375 51.242188 333.226562 49.945312 332.199219" fill="#f79651"/></g><g><path d="M 71.785156 343.207031 C 68.625 341.707031 65.507812 340.117188 62.402344 338.511719 C 61.472656 338.027344 59.488281 336.394531 58.457031 336.609375 C 57.65625 336.773438 56.816406 338.199219 57.035156 338.976562 C 57.449219 340.429688 60.519531 341.289062 61.730469 341.921875 C 69.585938 346 77.449219 350.058594 85.355469 354.03125 C 89.851562 356.292969 94.34375 358.710938 99.015625 360.59375 C 108.445312 364.394531 89.792969 351.722656 71.785156 343.207031" fill="#f79651"/></g><g><path d="M 97.425781 320.25 C 87.394531 316.941406 77.875 311.597656 68.554688 306.714844 C 65.878906 305.3125 62.746094 304.09375 60.296875 302.332031 C 58.902344 301.328125 59.5 298.753906 60.261719 297.429688 C 60.886719 296.34375 62.023438 295.652344 63.167969 296.210938 C 64.671875 296.949219 66.089844 298.0625 67.507812 298.960938 C 70.285156 300.726562 73.066406 302.492188 75.839844 304.265625 C 80.542969 307.273438 85.238281 310.289062 89.871094 313.398438 C 92.625 315.242188 95.527344 317.050781 98.019531 319.25 C 99.304688 320.386719 99.082031 320.796875 97.425781 320.25" fill="#f79651"/></g><g><path d="M 56.246094 293.191406 C 55.835938 293.792969 55.011719 294.285156 54.652344 294.75 C 54.28125 295.230469 53.980469 295.722656 53.710938 296.261719 C 53.527344 296.617188 53.410156 297.273438 53.164062 297.566406 C 52.398438 298.488281 50.496094 296.996094 49.773438 296.597656 C 48.285156 295.777344 46.800781 294.957031 45.316406 294.132812 C 42.558594 292.605469 39.808594 291.066406 37.058594 289.519531 C 32.644531 287.03125 28.230469 284.53125 23.839844 282 C 6.984375 272.273438 0.410156 273.304688 0 279.816406 L 0 278.167969 C 0 272.894531 1.414062 267.855469 3.949219 263.433594 C 6.511719 259.042969 10.167969 255.300781 14.734375 252.679688 L 22.074219 248.464844 C 13.113281 253.886719 10.992188 258.484375 16.503906 265.144531 C 17.667969 266.550781 19.359375 267.628906 20.824219 268.691406 C 23.605469 270.714844 26.46875 272.636719 29.335938 274.539062 C 34.371094 277.882812 39.457031 281.148438 44.550781 284.398438 C 47.40625 286.222656 50.269531 288.039062 53.128906 289.855469 C 53.921875 290.359375 56.207031 291.257812 56.457031 292.257812 C 56.542969 292.601562 56.441406 292.90625 56.246094 293.191406" fill="#f79651"/></g><g><path d="M 198.003906 214.632812 C 195.9375 214.957031 194.289062 215.78125 193.167969 215.839844 C 192.992188 215.8125 192.847656 215.8125 192.667969 215.8125 L 192.578125 215.8125 C 184.476562 216.3125 69.339844 284.828125 65.304688 289.21875 C 64.859375 289.71875 64.390625 290.191406 63.890625 290.691406 C 59.910156 294.699219 55.402344 299.296875 55.402344 316.949219 C 55.402344 333.777344 55.105469 353.667969 54.636719 366.28125 C 54.429688 371.761719 54.074219 375.59375 53.988281 377.597656 C 53.929688 378.597656 54.046875 379.484375 54.371094 380.277344 C 54.546875 380.660156 54.722656 380.984375 54.960938 381.308594 L 54.988281 381.339844 C 55.785156 382.753906 57.023438 384.875 58.820312 387.175781 C 55.488281 386.351562 52.191406 384.226562 51.304688 380.160156 L 51.277344 380.160156 C 51.128906 379.394531 51.039062 378.570312 51.070312 377.65625 C 51.1875 375.652344 51.511719 371.761719 51.894531 366.636719 C 52.160156 353.640625 52.453125 333.777344 52.453125 316.949219 C 52.453125 298.089844 57.640625 292.84375 61.796875 288.601562 C 62.269531 288.15625 62.710938 287.6875 63.121094 287.214844 C 67.484375 282.5 173.394531 219.316406 190.664062 213.21875 C 191.550781 212.925781 192.195312 212.746094 192.609375 212.746094 C 194.347656 212.777344 196.234375 213.542969 198.003906 214.632812" fill="#af512d"/></g><g><path d="M 198.296875 363.746094 C 197.738281 366.8125 197 369.460938 196.117188 371.675781 C 194.554688 375.652344 192.492188 378.304688 189.871094 379.660156 C 191.578125 377.210938 191.726562 374.53125 192.257812 372.96875 L 192.257812 372.941406 C 192.402344 372.703125 192.550781 372.441406 192.667969 372.144531 C 193.789062 369.90625 194.671875 366.929688 195.378906 363.304688 C 196.851562 354.757812 196.234375 337.988281 195.761719 324.523438 C 195.554688 318.660156 195.378906 313.5625 195.378906 309.9375 C 195.378906 293.316406 187.863281 288.511719 180.585938 283.855469 C 179.613281 283.207031 178.640625 282.589844 177.699219 281.941406 C 171.804688 277.871094 117.347656 248.550781 91.175781 234.464844 C 83.515625 230.457031 78.179688 227.804688 76.914062 227.128906 C 75.207031 226.214844 73.789062 226.007812 72.554688 226.214844 L 72.492188 226.214844 C 71.375 226.214844 69.339844 226.125 66.777344 226.332031 C 68.339844 224.710938 70.84375 222.765625 74.351562 223.179688 C 75.558594 223.324219 76.882812 223.738281 78.328125 224.535156 C 79.59375 225.183594 84.929688 227.863281 92.5625 231.871094 C 118.789062 245.988281 173.335938 275.367188 179.378906 279.523438 C 180.292969 280.144531 181.203125 280.734375 182.175781 281.351562 C 189.367188 285.976562 198.324219 291.722656 198.324219 309.9375 C 198.324219 313.53125 198.503906 318.570312 198.710938 324.40625 C 199.179688 338.019531 199.800781 354.9375 198.296875 363.746094" fill="#af512d"/></g><g><path d="M 257.734375 282.882812 C 257.410156 287.390625 255.613281 290.957031 253.464844 293.640625 C 251.195312 296.585938 248.511719 298.53125 246.921875 299.53125 C 243.621094 301.597656 178.023438 339.757812 151.441406 354.433594 C 138.679688 361.476562 128.75 363.65625 121.207031 363.65625 C 112.335938 363.65625 106.796875 360.652344 103.878906 359.0625 C 100.8125 357.410156 82.246094 347.480469 62.355469 336.871094 C 39.902344 324.875 15.855469 311.96875 10.757812 309.023438 C 8.164062 307.578125 6.21875 306.132812 4.804688 304.660156 C 2.0625 301.832031 1.238281 298.972656 1.324219 296.203125 C 2.652344 298.441406 4.625 299.769531 5.597656 300.890625 C 5.71875 301.066406 5.835938 301.242188 5.953125 301.390625 C 7.132812 303.070312 9.105469 304.71875 12.171875 306.429688 C 17.269531 309.375 41.285156 322.28125 63.742188 334.277344 C 83.632812 344.886719 102.199219 354.816406 105.261719 356.46875 C 110.304688 359.207031 123.652344 366.429688 150.027344 351.871094 C 176.578125 337.195312 242.089844 299.0625 245.359375 297 C 246.980469 295.96875 249.867188 293.875 252.019531 290.605469 C 252.253906 290.25 252.460938 289.898438 252.667969 289.515625 C 253.933594 288.101562 256.675781 286.359375 257.734375 282.882812" fill="#af512d"/></g><g><path d="M 58.203125 380.515625 C 58.363281 381.332031 57.9375 381.375 57.777344 382.117188 C 56.773438 382.304688 55.894531 381.261719 55.472656 380.492188 C 54.96875 379.574219 55.058594 378.652344 55.078125 377.625 L 55.078125 376.980469 C 55.351562 364.984375 55.03125 352.898438 56.144531 340.941406 C 56.230469 340.039062 57.589844 335.480469 59.15625 336.804688 C 60.238281 337.722656 58.953125 341.355469 58.886719 342.550781 C 58.585938 347.714844 58.320312 352.886719 58.113281 358.054688 C 57.933594 362.589844 57.785156 367.132812 57.773438 371.671875 C 57.765625 374.578125 57.636719 377.648438 58.203125 380.515625" fill="#f79651"/></g><g><path d="M 56.09375 323.269531 C 56.101562 313.617188 55.542969 305.007812 59.339844 297.777344 C 63.890625 290.691406 67.621094 287.988281 84.398438 277.785156 C 101.546875 267.359375 122.109375 253.5625 125.1875 254.023438 C 128.269531 254.480469 126.046875 255.003906 121.023438 257.820312 C 116.003906 260.636719 87.460938 278.398438 80.109375 283.910156 C 72.757812 289.425781 61.613281 295.917969 60.441406 306.460938 C 59.160156 316.984375 56.09375 335.992188 56.09375 323.269531" fill="#f79651"/></g><g><path d="M 132.375 251.609375 C 130.679688 250.851562 129.789062 249.925781 140.414062 243.808594 C 151.03125 237.6875 171.960938 225.988281 174.507812 224.761719 C 177.050781 223.535156 187.507812 217.578125 191.738281 216.804688 C 195.964844 216.03125 192.828125 217.304688 183.417969 222.714844 C 174.007812 228.125 143.84375 244.976562 140.246094 248.464844 C 136.652344 251.949219 164.589844 266.75 173.300781 271.726562 C 182.015625 276.707031 179.109375 277.8125 172.472656 273.941406 C 165.832031 270.066406 132.375 251.609375 132.375 251.609375" fill="#f79651"/></g><g><path d="M 121.707031 243.128906 C 124.773438 245.8125 123.09375 247.316406 115.046875 243.128906 C 106.972656 238.945312 81.511719 225.210938 79.210938 224.003906 C 77.976562 223.355469 75.882812 222.207031 75.117188 220.40625 C 75.765625 218.699219 76.882812 216.902344 79.152344 215.488281 C 79.242188 215.429688 79.359375 215.339844 79.476562 215.28125 L 122.265625 190.585938 C 120.175781 192.355469 117.140625 194.59375 110.480469 198.160156 C 93.917969 206.941406 79.332031 216.664062 81.597656 219.4375 C 83.898438 222.234375 118.644531 240.417969 121.707031 243.128906" fill="#f79651"/></g><g><path d="M 245.261719 314.644531 L 215.84375 331.628906 C 213.25 333.125 211.652344 335.894531 211.652344 338.886719 L 211.652344 354.394531 C 211.652344 356.707031 214.15625 358.152344 216.15625 356.996094 L 245.578125 340.011719 C 248.171875 338.511719 249.769531 335.746094 249.769531 332.75 L 249.769531 317.242188 C 249.769531 314.933594 247.265625 313.484375 245.261719 314.644531" fill="#dfd7d1"/></g><g><path d="M 224.5625 348.925781 L 246.171875 336.449219 L 246.171875 323.691406 L 224.5625 336.164062 Z M 246.6875 336.746094 L 224.046875 349.816406 L 224.046875 335.867188 L 246.6875 322.796875 L 246.6875 336.746094" fill="#754536"/></g><g><path d="M 214.382812 339.890625 L 246.171875 321.539062 L 246.171875 318.40625 L 214.382812 336.761719 Z M 246.6875 321.835938 L 213.867188 340.78125 L 213.867188 336.460938 L 246.6875 317.515625 L 246.6875 321.835938" fill="#754536"/></g><g><path d="M 234.558594 333.558594 L 225.648438 338.699219 L 225.648438 338.105469 L 234.558594 332.960938 L 234.558594 333.558594" fill="#754536"/></g><g><path d="M 234.558594 336.546875 L 225.648438 341.6875 L 225.648438 341.09375 L 234.558594 335.949219 L 234.558594 336.546875" fill="#754536"/></g><g><path d="M 234.558594 339.53125 L 225.648438 344.675781 L 225.648438 344.078125 L 234.558594 338.9375 L 234.558594 339.53125" fill="#754536"/></g><g><path d="M 234.558594 342.523438 L 225.648438 347.664062 L 225.648438 347.066406 L 234.558594 341.925781 L 234.558594 342.523438" fill="#754536"/></g></g></svg>